<svg xmlns="http://www.w3.org/2000/svg" version="1.1" xmlns:xlink="http://www.w3.org/1999/xlink" xmlns:svgjs="http://svgjs.dev/svgjs" width="1000" height="1000" viewBox="0 0 1000 1000"><rect width="1000" height="1000" fill="#ffffff"></rect><g transform="matrix(0.7,0,0,0.7,149.5047635500403,123.00550607287448)"><svg viewBox="0 0 229 247" data-background-color="#ffffff" preserveAspectRatio="xMidYMid meet" height="1078" width="1000" xmlns="http://www.w3.org/2000/svg" xmlns:xlink="http://www.w3.org/1999/xlink"><g id="tight-bounds" transform="matrix(1,0,0,1,0.16201306720108732,-0.09999999999999432)"><svg viewBox="0 0 228.67596899224804 247.2" height="247.2" width="228.67596899224804"><g><svg viewBox="0 0 228.67596899224804 247.2" height="247.2" width="228.67596899224804"><g><svg viewBox="0 0 228.67596899224804 247.2" height="247.2" width="228.67596899224804"><g id="textblocktransform"><svg viewBox="0 0 228.67596899224804 247.2" height="247.2" width="228.67596899224804" id="textblock"><g><svg viewBox="0 0 228.67596899224804 247.2" height="247.2" width="228.67596899224804"><g transform="matrix(1,0,0,1,0,0)"><svg width="228.67596899224804" viewBox="1.5 -38.25 35.79999923706055 38.70000076293945" height="247.2" data-palette-color="#37333f"><path d="M2.25-26.8L2.25-26.8Q2.25-32.15 6.9-35.2 11.55-38.25 17.6-38.25L17.6-38.25Q25.35-38.25 31.2-33.8L31.2-33.8Q34.1-31.55 35.7-27.83 37.3-24.1 37.3-19.6L37.3-19.6Q37.3-10.75 32.25-5.2L32.25-5.2Q27 0.45 19.1 0.45L19.1 0.45Q17.35 0.45 15.4 0 13.45-0.45 12.3-1.2L12.3-1.2Q10.45 0.2 7.58 0.2 4.7 0.2 3.1-1.4 1.5-3 1.5-5.5L1.5-5.5Q1.5-11.4 10.45-15.55L10.45-15.55Q10.7-17.65 11.18-21.23 11.65-24.8 11.93-27 12.2-29.2 12.3-29.9L12.3-29.9Q14.35-31.2 17.05-31.2L17.05-31.2Q18.3-31.2 19.45-30.95L19.45-30.95 16.3-9.6Q15.85-6.75 15.05-4.85L15.05-4.85Q16.6-4.45 17.55-4.45L17.55-4.45Q23.3-4.45 26.45-8.8L26.45-8.8Q29.7-13.35 29.7-19.8L29.7-19.8Q29.7-28.05 23.75-31.65L23.75-31.65Q20.45-33.65 16.5-33.65L16.5-33.65Q11.45-33.65 8.5-30.9L8.5-30.9Q6.8-29.35 6.8-27.15L6.8-27.15Q6.8-26 7.5-24.98 8.2-23.95 9.95-23.8L9.95-23.8 9.45-20.55Q5.8-20.75 4.03-22.58 2.25-24.4 2.25-26.8ZM5.2-6.15L5.2-6.15Q5.2-4.35 6.9-4.35L6.9-4.35Q7.6-4.35 8.38-5.28 9.15-6.2 9.45-8.2L9.45-8.2 9.9-11.3Q5.2-8.65 5.2-6.15Z" opacity="1" transform="matrix(1,0,0,1,0,0)" fill="#37333f" class="wordmark-text-0" data-fill-palette-color="primary" id="text-0"></path></svg></g></svg></g></svg></g></svg></g><g></g></svg></g><defs></defs></svg><rect width="228.67596899224804" height="247.2" fill="none" stroke="none" visibility="hidden"></rect></g></svg></g></svg>